<mxfile host="app.diagrams.net" modified="2023-08-21T02:22:09.372Z" agent="Mozilla/5.0 (Windows NT 10.0; Win64; x64) AppleWebKit/537.36 (KHTML, like Gecko) Chrome/109.0.0.0 Safari/537.36" version="21.6.8" etag="kt55G0LyQHTbUphn6FLW" type="github">
  <diagram name="PÃ¡gina-1" id="uNaLTVnkWq6KCR5BRoTX">
    <mxGraphModel>
      <root>
        <mxCell id="0" />
        <mxCell id="1" parent="0" />
      </root>
    </mxGraphModel>
  </diagram>
</mxfile>
